<svg xmlns="http://www.w3.org/2000/svg" width="16" height="16" fill="currentColor" viewBox="0 0 16 16">
  <path fill-rule="evenodd" d="M7.706 11.266a.667.667 0 0 0 .688-.063.712.712 0 0 0 .08-.064l3.333-3.334a.672.672 0 0 0 0-.946.66.66 0 0 0-.947 0L8.667 9.058V2.667C8.667 2.293 8.367 2 8 2a.66.66 0 0 0-.667.667v6.39L5.14 6.86a.66.66 0 0 0-.947 0 .66.66 0 0 0 0 .948l3.334 3.333a.65.65 0 0 0 .18.126Zm6.294 1.4c0 1.1-.9 2-2 2H4c-1.107 0-2-.9-2-2v-1.333a.66.66 0 0 1 .667-.666c.366 0 .666.293.666.666v1.334c0 .366.294.666.667.666h8c.367 0 .667-.3.667-.666v-1.334a.66.66 0 0 1 .666-.666c.367 0 .667.293.667.666v1.334Z" clip-rule="evenodd"/>
</svg>
