<svg xmlns="http://www.w3.org/2000/svg" width="18" height="19" fill="currentColor" viewBox="0 0 18 19">
  <path fill-rule="evenodd" d="M17.383.576A.997.997 0 0 0 17 .5h-5l-.117.007A1 1 0 0 0 11 1.5l.007.117A1 1 0 0 0 12 2.5h2.586l-8.293 8.293-.083.094a1 1 0 0 0 1.497 1.32L16 3.914V6.5l.007.117A1 1 0 0 0 18 6.5v-5a1.001 1.001 0 0 0-.617-.924ZM8 3.5a1 1 0 0 1 .117 1.993L8 5.5H3a1 1 0 0 0-.993.883L2 6.5v9a1 1 0 0 0 .883.993L3 16.5h9a1 1 0 0 0 .993-.883L13 15.5v-5a1 1 0 0 1 1.993-.117L15 10.5v5a3 3 0 0 1-2.824 2.995L12 18.5H3a3 3 0 0 1-2.995-2.824L0 15.5v-9a3 3 0 0 1 2.824-2.995L3 3.5h5Z" clip-rule="evenodd"/>
</svg>
