<svg xmlns="http://www.w3.org/2000/svg" width="20" height="20" fill="currentColor" viewBox="0 0 20 20">
  <path fill-rule="evenodd" d="M14.146 10.834H17.5V9.167h-3.354c-.209-4.211-1.985-7.5-4.146-7.5-2.16 0-3.937 3.289-4.146 7.5H2.5v1.667h3.354c.209 4.21 1.985 7.5 4.146 7.5 2.16 0 3.937-3.29 4.146-7.5Zm-1.669 0c-.096 1.745-.489 3.248-1.021 4.314-.666 1.33-1.277 1.519-1.456 1.519-.18 0-.79-.189-1.456-1.52-.532-1.065-.925-2.568-1.021-4.313h4.954ZM7.523 9.167c.096-1.745.489-3.249 1.021-4.314.666-1.33 1.277-1.52 1.456-1.52.18 0 .79.19 1.456 1.52.532 1.065.925 2.569 1.021 4.314H7.523Z" clip-rule="evenodd"/>
  <path fill-rule="evenodd" d="M10 16.667a6.667 6.667 0 1 0 0-13.333 6.667 6.667 0 0 0 0 13.333Zm0 1.667a8.333 8.333 0 1 0 0-16.667 8.333 8.333 0 0 0 0 16.667Z" clip-rule="evenodd"/>
</svg>
