<svg xmlns="http://www.w3.org/2000/svg" width="14" height="14" fill="currentColor" viewBox="0 0 14 14">
  <path fill-rule="evenodd" d="M6.16 1.07a.833.833 0 0 0-1.66.096V2H1.166l-.097.005a.833.833 0 0 0 .097 1.661l3.299.001c-.12 1.422-.542 2.662-1.13 3.55-.323-.33-.503-.69-.502-1.05l-.005-.097a.833.833 0 0 0-1.662.095c-.001.837.36 1.593.985 2.226a1.99 1.99 0 0 1-.985.275l-.097.006a.833.833 0 0 0 .097 1.661c.896 0 1.721-.334 2.431-.919.804.405 1.763.692 2.809.83l-1.001 2.25-.034.092a.834.834 0 0 0 .457 1.008l.091.035a.834.834 0 0 0 1.01-.457L7.448 12h4.102l.52 1.171.045.087a.833.833 0 0 0 1.479-.763l-3.334-7.5-.048-.094-.061-.089a.835.835 0 0 0-1.414.183l-1.62 3.647a7.908 7.908 0 0 1-2.374-.535l.049-.073c.74-1.167 1.222-2.69 1.343-4.367H7l.097-.006A.833.833 0 0 0 7 2h-.834v-.834l-.005-.097ZM9.5 7.383l-1.31 2.949h2.621l-1.31-2.95Z" clip-rule="evenodd"/>
</svg>
