<svg xmlns="http://www.w3.org/2000/svg" width="32" height="32" fill="currentColor" viewBox="0 0 32 32">
  <path fill-rule="evenodd" d="M16 26.666c5.89 0 10.666-4.775 10.666-10.666S21.89 5.333 15.999 5.333C10.11 5.333 5.333 10.11 5.333 16s4.775 10.666 10.666 10.666Zm0 2.667c7.363 0 13.333-5.97 13.333-13.333 0-7.364-5.97-13.334-13.334-13.334C8.636 2.666 2.666 8.636 2.666 16s5.97 13.333 13.333 13.333Z" clip-rule="evenodd"/>
  <path d="M12 12.004a1.333 1.333 0 0 1 2.018-1.144l6.662 3.984a1.347 1.347 0 0 1 0 2.312l-6.662 3.984A1.333 1.333 0 0 1 12 19.996v-7.992Z"/>
</svg>
